<mxfile host="65bd71144e">
    <diagram id="ZD_roegklXmNg9EvU27t" name="Page-1">
        <mxGraphModel dx="4675" dy="2035" grid="0" gridSize="10" guides="1" tooltips="1" connect="1" arrows="1" fold="1" page="0" pageScale="1" pageWidth="827" pageHeight="1169" background="#333333" math="0" shadow="0">
            <root>
                <mxCell id="0"/>
                <mxCell id="1" parent="0"/>
                <mxCell id="2" value="Domain" style="swimlane;fontSize=25;" parent="1" vertex="1">
                    <mxGeometry x="-191" y="-181" width="926" height="692" as="geometry">
                        <mxRectangle x="-191" y="-181" width="119" height="34" as="alternateBounds"/>
                    </mxGeometry>
                </mxCell>
                <mxCell id="12" style="edgeStyle=none;html=1;entryX=0.5;entryY=0;entryDx=0;entryDy=0;fontSize=25;" edge="1" parent="2" source="7" target="10">
                    <mxGeometry relative="1" as="geometry"/>
                </mxCell>
                <mxCell id="13" style="edgeStyle=none;html=1;entryX=0.5;entryY=0;entryDx=0;entryDy=0;fontSize=25;" edge="1" parent="2" source="7" target="11">
                    <mxGeometry relative="1" as="geometry"/>
                </mxCell>
                <mxCell id="7" value="Entities" style="swimlane;fontSize=25;" vertex="1" parent="2">
                    <mxGeometry x="321.5" y="45" width="283" height="273" as="geometry"/>
                </mxCell>
                <UserObject label="&lt;font style=&quot;font-size: 20px&quot;&gt;User&lt;/font&gt;" treeRoot="1" id="6">
                    <mxCell style="whiteSpace=wrap;html=1;align=center;treeFolding=1;treeMoving=1;newEdgeStyle={&quot;edgeStyle&quot;:&quot;elbowEdgeStyle&quot;,&quot;startArrow&quot;:&quot;none&quot;,&quot;endArrow&quot;:&quot;none&quot;};fontSize=25;" vertex="1" parent="7">
                        <mxGeometry x="14" y="37" width="129" height="67" as="geometry"/>
                    </mxCell>
                </UserObject>
                <UserObject label="&lt;font style=&quot;font-size: 20px&quot;&gt;Client&lt;/font&gt;" treeRoot="1" id="8">
                    <mxCell style="whiteSpace=wrap;html=1;align=center;treeFolding=1;treeMoving=1;newEdgeStyle={&quot;edgeStyle&quot;:&quot;elbowEdgeStyle&quot;,&quot;startArrow&quot;:&quot;none&quot;,&quot;endArrow&quot;:&quot;none&quot;};fontSize=25;" vertex="1" parent="7">
                        <mxGeometry x="14" y="116" width="129" height="67" as="geometry"/>
                    </mxCell>
                </UserObject>
                <UserObject label="&lt;font style=&quot;font-size: 20px&quot;&gt;Game&lt;/font&gt;" treeRoot="1" id="9">
                    <mxCell style="whiteSpace=wrap;html=1;align=center;treeFolding=1;treeMoving=1;newEdgeStyle={&quot;edgeStyle&quot;:&quot;elbowEdgeStyle&quot;,&quot;startArrow&quot;:&quot;none&quot;,&quot;endArrow&quot;:&quot;none&quot;};fontSize=25;" vertex="1" parent="7">
                        <mxGeometry x="14" y="195" width="129" height="67" as="geometry"/>
                    </mxCell>
                </UserObject>
                <mxCell id="17" style="edgeStyle=none;html=1;fontSize=25;" edge="1" parent="2" source="10" target="11">
                    <mxGeometry relative="1" as="geometry"/>
                </mxCell>
                <UserObject label="&lt;font style=&quot;font-size: 25px&quot;&gt;Repositories&lt;br&gt;(Porta de saÃ­da)&lt;br&gt;&lt;/font&gt;" treeRoot="1" id="10">
                    <mxCell style="whiteSpace=wrap;html=1;align=center;treeFolding=1;treeMoving=1;newEdgeStyle={&quot;edgeStyle&quot;:&quot;elbowEdgeStyle&quot;,&quot;startArrow&quot;:&quot;none&quot;,&quot;endArrow&quot;:&quot;none&quot;};fontSize=25;" vertex="1" parent="2">
                        <mxGeometry x="667" y="533" width="223" height="121" as="geometry"/>
                    </mxCell>
                </UserObject>
                <UserObject label="&lt;font style=&quot;font-size: 25px&quot;&gt;Services&lt;br&gt;(Porta de entrada)&lt;br&gt;&lt;/font&gt;" treeRoot="1" id="11">
                    <mxCell style="whiteSpace=wrap;html=1;align=center;treeFolding=1;treeMoving=1;newEdgeStyle={&quot;edgeStyle&quot;:&quot;elbowEdgeStyle&quot;,&quot;startArrow&quot;:&quot;none&quot;,&quot;endArrow&quot;:&quot;none&quot;};fontSize=25;" vertex="1" parent="2">
                        <mxGeometry x="34" y="533" width="223" height="121" as="geometry"/>
                    </mxCell>
                </UserObject>
                <mxCell id="23" style="edgeStyle=none;html=1;fontSize=25;exitX=0.5;exitY=1;exitDx=0;exitDy=0;" edge="1" parent="1" source="32" target="5">
                    <mxGeometry relative="1" as="geometry"/>
                </mxCell>
                <mxCell id="3" value="Controllers" style="swimlane;fontSize=25;" parent="1" vertex="1">
                    <mxGeometry x="-444" y="570" width="477" height="447" as="geometry"/>
                </mxCell>
                <mxCell id="32" value="http routes (adapter)" style="swimlane;fontSize=25;startSize=23;" vertex="1" parent="3">
                    <mxGeometry x="11" y="32" width="283" height="297" as="geometry"/>
                </mxCell>
                <UserObject label="&lt;font style=&quot;font-size: 20px&quot;&gt;Client Routes&lt;/font&gt;" treeRoot="1" id="33">
                    <mxCell style="whiteSpace=wrap;html=1;align=center;treeFolding=1;treeMoving=1;newEdgeStyle={&quot;edgeStyle&quot;:&quot;elbowEdgeStyle&quot;,&quot;startArrow&quot;:&quot;none&quot;,&quot;endArrow&quot;:&quot;none&quot;};fontSize=25;" vertex="1" parent="32">
                        <mxGeometry x="14" y="37" width="181" height="67" as="geometry"/>
                    </mxCell>
                </UserObject>
                <UserObject label="&lt;font style=&quot;font-size: 20px&quot;&gt;User Routes&lt;/font&gt;" treeRoot="1" id="34">
                    <mxCell style="whiteSpace=wrap;html=1;align=center;treeFolding=1;treeMoving=1;newEdgeStyle={&quot;edgeStyle&quot;:&quot;elbowEdgeStyle&quot;,&quot;startArrow&quot;:&quot;none&quot;,&quot;endArrow&quot;:&quot;none&quot;};fontSize=25;" vertex="1" parent="32">
                        <mxGeometry x="14" y="116" width="183" height="67" as="geometry"/>
                    </mxCell>
                </UserObject>
                <UserObject label="&lt;font style=&quot;font-size: 20px&quot;&gt;Game Routes&lt;/font&gt;" treeRoot="1" id="35">
                    <mxCell style="whiteSpace=wrap;html=1;align=center;treeFolding=1;treeMoving=1;newEdgeStyle={&quot;edgeStyle&quot;:&quot;elbowEdgeStyle&quot;,&quot;startArrow&quot;:&quot;none&quot;,&quot;endArrow&quot;:&quot;none&quot;};fontSize=25;" vertex="1" parent="32">
                        <mxGeometry x="14" y="195" width="183" height="67" as="geometry"/>
                    </mxCell>
                </UserObject>
                <mxCell id="4" value="Data Sources" style="swimlane;fontSize=25;" parent="1" vertex="1">
                    <mxGeometry x="690" y="610" width="706" height="612" as="geometry"/>
                </mxCell>
                <mxCell id="19" value="Models" style="swimlane;fontSize=25;startSize=23;" vertex="1" parent="4">
                    <mxGeometry x="399" y="33" width="283" height="273" as="geometry"/>
                </mxCell>
                <UserObject label="&lt;font style=&quot;font-size: 20px&quot;&gt;UserModel&lt;/font&gt;" treeRoot="1" id="20">
                    <mxCell style="whiteSpace=wrap;html=1;align=center;treeFolding=1;treeMoving=1;newEdgeStyle={&quot;edgeStyle&quot;:&quot;elbowEdgeStyle&quot;,&quot;startArrow&quot;:&quot;none&quot;,&quot;endArrow&quot;:&quot;none&quot;};fontSize=25;" vertex="1" parent="19">
                        <mxGeometry x="14" y="37" width="129" height="67" as="geometry"/>
                    </mxCell>
                </UserObject>
                <UserObject label="&lt;font style=&quot;font-size: 20px&quot;&gt;ClientModel&lt;/font&gt;" treeRoot="1" id="21">
                    <mxCell style="whiteSpace=wrap;html=1;align=center;treeFolding=1;treeMoving=1;newEdgeStyle={&quot;edgeStyle&quot;:&quot;elbowEdgeStyle&quot;,&quot;startArrow&quot;:&quot;none&quot;,&quot;endArrow&quot;:&quot;none&quot;};fontSize=25;" vertex="1" parent="19">
                        <mxGeometry x="14" y="116" width="129" height="67" as="geometry"/>
                    </mxCell>
                </UserObject>
                <UserObject label="&lt;font style=&quot;font-size: 20px&quot;&gt;GameModel&lt;/font&gt;" treeRoot="1" id="22">
                    <mxCell style="whiteSpace=wrap;html=1;align=center;treeFolding=1;treeMoving=1;newEdgeStyle={&quot;edgeStyle&quot;:&quot;elbowEdgeStyle&quot;,&quot;startArrow&quot;:&quot;none&quot;,&quot;endArrow&quot;:&quot;none&quot;};fontSize=25;" vertex="1" parent="19">
                        <mxGeometry x="14" y="195" width="129" height="67" as="geometry"/>
                    </mxCell>
                </UserObject>
                <mxCell id="24" value="Mappers" style="swimlane;fontSize=25;startSize=23;" vertex="1" parent="4">
                    <mxGeometry x="395" y="328" width="283" height="273" as="geometry"/>
                </mxCell>
                <UserObject label="&lt;font style=&quot;font-size: 20px&quot;&gt;UserMapper&lt;/font&gt;" treeRoot="1" id="25">
                    <mxCell style="whiteSpace=wrap;html=1;align=center;treeFolding=1;treeMoving=1;newEdgeStyle={&quot;edgeStyle&quot;:&quot;elbowEdgeStyle&quot;,&quot;startArrow&quot;:&quot;none&quot;,&quot;endArrow&quot;:&quot;none&quot;};fontSize=25;" vertex="1" parent="24">
                        <mxGeometry x="14" y="37" width="129" height="67" as="geometry"/>
                    </mxCell>
                </UserObject>
                <UserObject label="&lt;font style=&quot;font-size: 20px&quot;&gt;ClientMapper&lt;/font&gt;" treeRoot="1" id="26">
                    <mxCell style="whiteSpace=wrap;html=1;align=center;treeFolding=1;treeMoving=1;newEdgeStyle={&quot;edgeStyle&quot;:&quot;elbowEdgeStyle&quot;,&quot;startArrow&quot;:&quot;none&quot;,&quot;endArrow&quot;:&quot;none&quot;};fontSize=25;" vertex="1" parent="24">
                        <mxGeometry x="14" y="116" width="129" height="67" as="geometry"/>
                    </mxCell>
                </UserObject>
                <UserObject label="&lt;font style=&quot;font-size: 20px&quot;&gt;GameMapper&lt;/font&gt;" treeRoot="1" id="27">
                    <mxCell style="whiteSpace=wrap;html=1;align=center;treeFolding=1;treeMoving=1;newEdgeStyle={&quot;edgeStyle&quot;:&quot;elbowEdgeStyle&quot;,&quot;startArrow&quot;:&quot;none&quot;,&quot;endArrow&quot;:&quot;none&quot;};fontSize=25;" vertex="1" parent="24">
                        <mxGeometry x="14" y="195" width="129" height="67" as="geometry"/>
                    </mxCell>
                </UserObject>
                <mxCell id="28" value="DataSources (adapter)" style="swimlane;fontSize=25;startSize=23;" vertex="1" parent="4">
                    <mxGeometry x="23" y="33" width="323" height="273" as="geometry"/>
                </mxCell>
                <UserObject label="&lt;font style=&quot;font-size: 20px&quot;&gt;UserDataSource&lt;/font&gt;" treeRoot="1" id="29">
                    <mxCell style="whiteSpace=wrap;html=1;align=center;treeFolding=1;treeMoving=1;newEdgeStyle={&quot;edgeStyle&quot;:&quot;elbowEdgeStyle&quot;,&quot;startArrow&quot;:&quot;none&quot;,&quot;endArrow&quot;:&quot;none&quot;};fontSize=25;" vertex="1" parent="28">
                        <mxGeometry x="14" y="37" width="181" height="67" as="geometry"/>
                    </mxCell>
                </UserObject>
                <UserObject label="&lt;font style=&quot;font-size: 20px&quot;&gt;GameDataSource&lt;/font&gt;" treeRoot="1" id="30">
                    <mxCell style="whiteSpace=wrap;html=1;align=center;treeFolding=1;treeMoving=1;newEdgeStyle={&quot;edgeStyle&quot;:&quot;elbowEdgeStyle&quot;,&quot;startArrow&quot;:&quot;none&quot;,&quot;endArrow&quot;:&quot;none&quot;};fontSize=25;" vertex="1" parent="28">
                        <mxGeometry x="14" y="116" width="183" height="67" as="geometry"/>
                    </mxCell>
                </UserObject>
                <mxCell id="5" value="index da aplicaÃ§Ã£o&lt;br style=&quot;font-size: 25px;&quot;&gt;(Arquivo que executa&lt;br style=&quot;font-size: 25px;&quot;&gt;a API)" style="whiteSpace=wrap;html=1;shape=mxgraph.basic.document;container=1;fontSize=25;" parent="1" vertex="1">
                    <mxGeometry x="-803" y="976" width="186" height="199" as="geometry"/>
                </mxCell>
                <mxCell id="14" style="edgeStyle=none;html=1;entryX=0.5;entryY=0;entryDx=0;entryDy=0;fontSize=25;" edge="1" parent="1" source="11" target="3">
                    <mxGeometry relative="1" as="geometry"/>
                </mxCell>
                <mxCell id="18" style="edgeStyle=none;html=1;entryX=0.5;entryY=0;entryDx=0;entryDy=0;fontSize=25;" edge="1" parent="1" source="10" target="28">
                    <mxGeometry relative="1" as="geometry"/>
                </mxCell>
            </root>
        </mxGraphModel>
    </diagram>
</mxfile>